<svg width="1272" height="626" viewBox="0 0 1272 626" fill="none" xmlns="http://www.w3.org/2000/svg">
<path d="M596.159 183.384V210.125H573.875V230.032H596.159V308.471C596.159 325.407 599.13 338.183 606.261 346.205C612.5 353.039 622.305 357.199 634.487 357.199C644.589 357.199 652.611 355.416 657.662 353.633L656.474 333.726C652.611 334.915 648.452 335.509 641.321 335.509C626.762 335.509 621.711 325.407 621.711 307.58V230.032H659.148V210.125H621.711V175.659L596.159 183.384ZM688.579 353.93H714.725V277.274C714.725 273.114 715.023 268.657 715.617 265.092C719.182 245.482 732.256 231.814 750.677 231.814C754.242 231.814 756.916 231.814 759.59 232.409V207.748C757.214 207.451 755.134 207.154 752.46 207.154C734.93 207.154 718.885 219.335 712.349 238.648H711.457L710.269 210.125H687.391C688.282 223.495 688.579 238.054 688.579 254.99V353.93ZM813.088 353.93V210.125H786.942V353.93H813.088ZM800.015 153.375C790.21 153.375 783.673 160.803 783.673 169.717C783.673 178.63 789.913 185.761 799.421 185.761C809.82 185.761 816.059 178.63 816.059 169.717C816.059 160.506 809.523 153.375 800.015 153.375ZM856.579 316.791C856.579 329.567 855.985 344.125 855.391 353.93H877.674L879.16 330.458H879.754C890.748 349.176 907.386 357.199 928.185 357.199C960.274 357.199 992.957 331.646 992.957 280.245C992.957 236.865 967.999 207.154 932.047 207.154C908.872 207.154 892.233 217.256 883.023 233.3H882.428V142.976H856.579V316.791ZM882.428 270.737C882.428 266.577 883.023 263.012 883.914 259.744C889.262 240.134 905.901 227.655 923.431 227.655C951.657 227.655 966.513 252.316 966.513 281.136C966.513 314.116 950.469 336.4 922.837 336.4C903.821 336.4 888.371 323.921 883.617 305.797C882.725 302.826 882.428 299.558 882.428 296.289V270.737ZM1141.32 286.781C1141.91 283.81 1142.21 279.948 1142.21 274.6C1142.21 248.156 1130.03 207.154 1082.79 207.154C1040.89 207.154 1015.34 241.025 1015.34 284.405C1015.34 327.784 1041.78 357.199 1086.05 357.199C1108.93 357.199 1124.98 352.148 1134.19 347.988L1129.43 329.27C1119.93 333.429 1108.34 336.697 1089.62 336.697C1063.18 336.697 1040.89 322.139 1040.3 286.781H1141.32ZM1040.6 268.063C1042.68 249.939 1053.97 225.872 1080.71 225.872C1110.12 225.872 1117.25 251.721 1116.96 268.063H1040.6ZM1164.78 347.097C1174.89 353.039 1189.45 357.199 1205.19 357.199C1238.77 357.199 1258.67 339.372 1258.67 313.819C1258.67 292.427 1245.6 279.948 1220.94 270.737C1202.22 263.309 1193.9 257.961 1193.9 246.076C1193.9 235.38 1202.22 226.466 1217.67 226.466C1231.04 226.466 1241.44 231.517 1247.09 235.083L1253.33 216.067C1245.6 211.016 1232.82 207.154 1218.27 207.154C1187.66 207.154 1168.65 226.169 1168.65 249.344C1168.65 266.577 1180.83 280.542 1206.98 290.05C1225.99 297.181 1233.42 303.717 1233.42 316.196C1233.42 328.378 1224.51 337.589 1205.79 337.589C1192.71 337.589 1179.05 332.241 1171.02 327.487L1164.78 347.097Z" fill="#84BF67"/>
<path d="M88.6439 371.673C88.6439 371.673 223.119 469.674 119.823 625.75C119.823 625.75 48.8412 471.194 76.3812 386.542L88.6439 371.673Z" fill="#E48432"/>
<path d="M78.0813 397.113C78.0813 397.113 165.871 507.533 46.2507 611.781C46.2507 611.781 23.1067 469.467 64.7067 406.499L78.0813 397.113Z" fill="#E69E4F"/>
<path d="M56.2051 304.661C41.8677 304.661 27.5304 310.131 16.5917 321.071C-5.28693 342.948 -5.28693 378.419 16.5917 400.297C27.5304 411.236 41.8677 416.705 56.2051 416.705C70.5424 416.705 84.8797 411.236 95.8184 400.297C117.697 378.419 117.697 342.948 95.8184 321.071C84.8797 310.131 70.5424 304.661 56.2051 304.661ZM56.2051 331.328C64.0464 331.328 71.4184 334.381 76.9624 339.925C82.5077 345.469 85.5611 352.843 85.5611 360.684C85.5611 368.524 82.5077 375.896 76.9624 381.441C71.4184 386.985 64.0464 390.039 56.2051 390.039C48.3637 390.039 40.9917 386.985 35.4477 381.441C29.9024 375.896 26.8491 368.524 26.8491 360.684C26.8491 352.843 29.9024 345.469 35.4477 339.925C40.9917 334.381 48.3637 331.328 56.2051 331.328Z" fill="#84BF67"/>
<path d="M0.0136108 209.224C0.0136108 209.224 183.23 132.825 292.18 332.151C292.18 332.151 355.387 467.101 401.64 486.429C401.64 486.429 286.62 533.652 205.614 445.471C124.608 357.289 189.406 311.895 0.0136108 209.224Z" fill="#E57729"/>
<path d="M0 209.223C0 209.223 157.199 88.0067 314.028 252.343C314.028 252.343 410.008 366.336 459.688 373.033C459.688 373.033 360.808 448.417 259.74 384.205C158.671 319.996 209.512 259.377 0 209.223Z" fill="#E48432"/>
<path d="M0.00708008 209.227C0.00708008 209.227 120.476 51.4546 314.495 169.6C314.495 169.6 436.708 254.868 486.428 248.48C486.428 248.48 410.428 346.887 296.184 311.023C181.94 275.157 215.36 203.447 0.00708008 209.227Z" fill="#E59442"/>
<path d="M480.014 121.242C433.64 140.281 293.522 89.5502 293.522 89.5502C75.5376 25.6462 0.00689697 209.222 0.00689697 209.222C206.526 147.901 192.806 225.818 312.439 230.891C432.072 235.965 480.014 121.242 480.014 121.242Z" fill="#E69E4F"/>
<path d="M440.902 0.000215921C406.778 26.0162 293.076 30.0362 261.033 30.6549C256.042 30.7509 251.049 30.5789 246.078 30.1135C1.7863 7.28421 0.0209351 209.218 0.0209351 209.218C183.633 96.5335 190.546 175.348 307.417 149.286C424.288 123.223 440.902 0.000215921 440.902 0.000215921Z" fill="#E5A858"/>
</svg>
