<svg width="877" height="1130" viewBox="0 0 877 1130" fill="none" xmlns="http://www.w3.org/2000/svg">
<path d="M159.82 671.101C159.82 671.101 402.269 847.791 216.033 1129.19C216.033 1129.19 88.0578 850.531 137.711 697.909L159.82 671.101Z" fill="#E48432"/>
<path d="M140.776 716.968C140.776 716.968 299.054 916.048 83.3869 1104C83.3869 1104 41.6597 847.416 116.662 733.889L140.776 716.968Z" fill="#E69E4F"/>
<path d="M101.334 550.283C75.4848 550.283 49.6355 560.144 29.9137 579.868C-9.53212 619.311 -9.53212 683.263 29.9137 722.708C49.6355 742.43 75.4848 752.291 101.334 752.291C127.183 752.291 153.033 742.43 172.754 722.708C212.2 683.263 212.2 619.311 172.754 579.868C153.033 560.144 127.183 550.283 101.334 550.283ZM101.334 598.361C115.472 598.361 128.763 603.866 138.758 613.861C148.756 623.857 154.261 637.151 154.261 651.288C154.261 665.423 148.756 678.714 138.758 688.712C128.763 698.708 115.472 704.213 101.334 704.213C87.1967 704.213 73.9054 698.708 63.9099 688.712C53.912 678.714 48.4071 665.423 48.4071 651.288C48.4071 637.151 53.912 623.857 63.9099 613.861C73.9054 603.866 87.1967 598.361 101.334 598.361Z" fill="#84BF67"/>
<path d="M0.0249023 378.215C0.0249023 378.215 330.352 240.473 526.783 599.844C526.783 599.844 640.741 843.152 724.133 877.999C724.133 877.999 516.759 963.138 370.709 804.153C224.661 645.167 341.487 563.324 0.0249023 378.215Z" fill="#E57729"/>
<path d="M0 378.212C0 378.212 283.419 159.668 566.173 455.955C566.173 455.955 739.219 661.478 828.789 673.553C828.789 673.553 650.514 809.465 468.295 693.695C286.073 577.93 377.737 468.638 0 378.212Z" fill="#E48432"/>
<path d="M0.0124512 378.22C0.0124512 378.22 217.211 93.7666 567.015 306.775C567.015 306.775 787.358 460.508 877 448.991C877 448.991 739.976 626.412 534.002 561.751C328.027 497.089 388.281 367.799 0.0124512 378.22Z" fill="#E59442"/>
<path d="M865.434 219.589C781.826 253.915 529.201 162.45 529.201 162.45C136.19 47.2355 0.0124512 378.211 0.0124512 378.211C372.353 267.653 347.616 408.133 563.308 417.28C778.999 426.427 865.434 219.589 865.434 219.589Z" fill="#E69E4F"/>
<path d="M794.919 0.997273C733.395 47.9025 528.397 55.1503 470.626 56.2657C461.628 56.4388 452.625 56.1287 443.663 55.2897C3.22031 14.1298 0.0374756 378.203 0.0374756 378.203C331.078 175.041 343.543 317.139 554.253 270.149C764.964 223.16 794.919 0.997273 794.919 0.997273Z" fill="#E5A858"/>
</svg>
